<svg id="Capa_1" enable-background="new 0 0 512 512" height="512" viewBox="0 0 512 512" width="512" xmlns="http://www.w3.org/2000/svg" xmlns:xlink="http://www.w3.org/1999/xlink"><linearGradient id="SVGID_1_" gradientUnits="userSpaceOnUse" x1="181.946" x2="431.946" y1="208.063" y2="312.063"><stop offset="0" stop-color="#c7d3ff"/><stop offset=".593" stop-color="#e7d8f5"/><stop offset=".997" stop-color="#ffdbed"/></linearGradient><path d="m349.867.425c-95.818 8.652-105.091 192.429-146.416 286.587-20.478 46.658-68.772 94.794-60.258 149.782 9.605 62.035 72.897 80.075 121.683 74.14 120.723-14.685 172.899-141.053 180.797-260.801 4.869-73.829 20.3-260.192-95.806-249.708z" fill="url(#SVGID_1_)"/><path d="m444.24 266.968h-168.926l14.986-28.52h112.89c5.52 0 10-4.48 10-10v-82.6c0-5.52-4.48-10-10-10h-13.873c-.004-28.558-24.058-51.497-53.016-49.642-24.34 1.559-44.226 21.004-46.29 45.306-.124 1.458-.184 2.904-.184 4.336h-204.017c-5.52 0-10 4.48-10 10v82.6c0 5.52 4.48 10 10 10h112.89l14.986 28.52h-168.926c-11.04 0-20 8.96-20 20v154.93c0 11.05 8.96 20 20 20h399.48c11.04 0 20-8.95 20-20v-154.93c0-11.04-8.96-20-20-20z" fill="#2626bc" opacity=".11"/><path d="m482.24 268.967v154.93c0 11.05-8.96 20-20 20h-399.48c-11.04 0-20-8.95-20-20v-154.93c0-11.04 8.96-20 20-20h399.48c11.04 0 20 8.961 20 20z" fill="#6583fe"/><path d="m120.831 279.716h-46.707c-2.762 0-5-2.239-5-5s2.238-5 5-5h46.707c2.762 0 5 2.239 5 5s-2.239 5-5 5z" fill="#9fb0fe"/><path d="m301.95 248.967-30.6 58.24c-3.74 7.13-13.96 7.13-17.7 0l-30.6-58.24z" fill="#4369fd"/><path d="m84.606 309.25h355.788v134.472h-355.788z" fill="#9fb0fe"/><path d="m94.4 323.521h-19.588c-2.472 0-4.476-2.004-4.476-4.476v-19.589c0-2.472 2.004-4.476 4.476-4.476h19.588c2.472 0 4.476 2.004 4.476 4.476v19.589c.001 2.472-2.003 4.476-4.476 4.476z" fill="#d2deff"/><path d="m138.874 323.521h-19.589c-2.472 0-4.476-2.004-4.476-4.476v-19.589c0-2.472 2.004-4.476 4.476-4.476h19.589c2.472 0 4.476 2.004 4.476 4.476v19.589c0 2.472-2.004 4.476-4.476 4.476z" fill="#d2deff"/><path d="m183.348 323.521h-19.589c-2.472 0-4.476-2.004-4.476-4.476v-19.589c0-2.472 2.004-4.476 4.476-4.476h19.589c2.472 0 4.476 2.004 4.476 4.476v19.589c0 2.472-2.004 4.476-4.476 4.476z" fill="#d2deff"/><path d="m227.821 323.521h-19.589c-2.472 0-4.476-2.004-4.476-4.476v-19.589c0-2.472 2.004-4.476 4.476-4.476h19.589c2.472 0 4.476 2.004 4.476 4.476v19.589c0 2.472-2.004 4.476-4.476 4.476z" fill="#d2deff"/><path d="m272.295 323.521h-19.589c-2.472 0-4.476-2.004-4.476-4.476v-19.589c0-2.472 2.004-4.476 4.476-4.476h19.589c2.472 0 4.476 2.004 4.476 4.476v19.589c0 2.472-2.004 4.476-4.476 4.476z" fill="#d2deff"/><path d="m276.38 297.627-5.03 9.58c-3.74 7.13-13.96 7.13-17.7 0l-5.03-9.58c.69-1.56 2.26-2.65 4.09-2.65h19.58c1.83 0 3.4 1.091 4.09 2.65z" fill="#b7c5ff"/><g fill="#d2deff"><path d="m316.768 323.521h-19.588c-2.472 0-4.476-2.004-4.476-4.476v-19.589c0-2.472 2.004-4.476 4.476-4.476h19.589c2.472 0 4.476 2.004 4.476 4.476v19.589c0 2.472-2.005 4.476-4.477 4.476z"/><path d="m361.242 323.521h-19.589c-2.472 0-4.476-2.004-4.476-4.476v-19.589c0-2.472 2.004-4.476 4.476-4.476h19.589c2.472 0 4.476 2.004 4.476 4.476v19.589c0 2.472-2.004 4.476-4.476 4.476z"/><path d="m405.715 323.521h-19.589c-2.472 0-4.476-2.004-4.476-4.476v-19.589c0-2.472 2.004-4.476 4.476-4.476h19.589c2.472 0 4.476 2.004 4.476 4.476v19.589c.001 2.472-2.003 4.476-4.476 4.476z"/><path d="m450.189 323.521h-19.589c-2.472 0-4.476-2.004-4.476-4.476v-19.589c0-2.472 2.004-4.476 4.476-4.476h19.589c2.472 0 4.476 2.004 4.476 4.476v19.589c0 2.472-2.004 4.476-4.476 4.476z"/><path d="m94.4 367.627h-19.588c-2.472 0-4.476-2.004-4.476-4.476v-19.589c0-2.472 2.004-4.476 4.476-4.476h19.588c2.472 0 4.476 2.004 4.476 4.476v19.589c.001 2.471-2.003 4.476-4.476 4.476z"/><path d="m138.874 367.627h-19.589c-2.472 0-4.476-2.004-4.476-4.476v-19.589c0-2.472 2.004-4.476 4.476-4.476h19.589c2.472 0 4.476 2.004 4.476 4.476v19.589c0 2.471-2.004 4.476-4.476 4.476z"/><path d="m183.348 367.627h-19.589c-2.472 0-4.476-2.004-4.476-4.476v-19.589c0-2.472 2.004-4.476 4.476-4.476h19.589c2.472 0 4.476 2.004 4.476 4.476v19.589c0 2.471-2.004 4.476-4.476 4.476z"/><path d="m227.821 367.627h-19.589c-2.472 0-4.476-2.004-4.476-4.476v-19.589c0-2.472 2.004-4.476 4.476-4.476h19.589c2.472 0 4.476 2.004 4.476 4.476v19.589c0 2.471-2.004 4.476-4.476 4.476z"/><path d="m272.295 367.627h-19.589c-2.472 0-4.476-2.004-4.476-4.476v-19.589c0-2.472 2.004-4.476 4.476-4.476h19.589c2.472 0 4.476 2.004 4.476 4.476v19.589c0 2.471-2.004 4.476-4.476 4.476z"/><path d="m316.768 367.627h-19.588c-2.472 0-4.476-2.004-4.476-4.476v-19.589c0-2.472 2.004-4.476 4.476-4.476h19.589c2.472 0 4.476 2.004 4.476 4.476v19.589c0 2.471-2.005 4.476-4.477 4.476z"/><path d="m361.242 367.627h-19.589c-2.472 0-4.476-2.004-4.476-4.476v-19.589c0-2.472 2.004-4.476 4.476-4.476h19.589c2.472 0 4.476 2.004 4.476 4.476v19.589c0 2.471-2.004 4.476-4.476 4.476z"/><path d="m405.715 367.627h-19.589c-2.472 0-4.476-2.004-4.476-4.476v-19.589c0-2.472 2.004-4.476 4.476-4.476h19.589c2.472 0 4.476 2.004 4.476 4.476v19.589c.001 2.471-2.003 4.476-4.476 4.476z"/><path d="m94.4 411.732h-19.588c-2.472 0-4.476-2.004-4.476-4.476v-19.589c0-2.472 2.004-4.476 4.476-4.476h19.588c2.472 0 4.476 2.004 4.476 4.476v19.589c.001 2.472-2.003 4.476-4.476 4.476z"/><path d="m138.874 411.732h-19.589c-2.472 0-4.476-2.004-4.476-4.476v-19.589c0-2.472 2.004-4.476 4.476-4.476h19.589c2.472 0 4.476 2.004 4.476 4.476v19.589c0 2.472-2.004 4.476-4.476 4.476z"/><path d="m183.348 411.732h-19.589c-2.472 0-4.476-2.004-4.476-4.476v-19.589c0-2.472 2.004-4.476 4.476-4.476h19.589c2.472 0 4.476 2.004 4.476 4.476v19.589c0 2.472-2.004 4.476-4.476 4.476z"/><path d="m316.768 383.191h-108.536c-2.472 0-4.476 2.004-4.476 4.476v19.589c0 2.472 2.004 4.476 4.476 4.476h108.536c2.472 0 4.476-2.004 4.476-4.476v-19.589c.001-2.472-2.004-4.476-4.476-4.476z"/><path d="m361.242 411.732h-19.589c-2.472 0-4.476-2.004-4.476-4.476v-19.589c0-2.472 2.004-4.476 4.476-4.476h19.589c2.472 0 4.476 2.004 4.476 4.476v19.589c0 2.472-2.004 4.476-4.476 4.476z"/><path d="m405.715 411.732h-19.589c-2.472 0-4.476-2.004-4.476-4.476v-19.589c0-2.472 2.004-4.476 4.476-4.476h19.589c2.472 0 4.476 2.004 4.476 4.476v19.589c.001 2.472-2.003 4.476-4.476 4.476z"/><path d="m450.189 339.085h-19.589c-2.472 0-4.476 2.004-4.476 4.476v63.694c0 2.472 2.004 4.476 4.476 4.476h19.589c2.472 0 4.476-2.004 4.476-4.476v-63.694c0-2.471-2.004-4.476-4.476-4.476z"/></g><circle cx="448.103" cy="275.967" fill="#97ffd2" r="5.59"/><circle cx="431.192" cy="275.967" fill="#97ffd2" r="5.59"/><circle cx="414.282" cy="275.967" fill="#97ffd2" r="5.59"/><path d="m431.19 127.848v82.6c0 5.52-4.48 10-10 10h-112.89l-36.95 70.32c-3.74 7.13-13.96 7.13-17.7 0l-36.95-70.32h-112.89c-5.52 0-10-4.48-10-10v-82.6c0-5.52 4.48-10 10-10h317.38c5.52 0 10 4.48 10 10z" fill="#97ffd2"/><path d="m407.22 134.678c-1.56 24.34-21 44.23-45.3 46.29-11.79 1-22.81-2.12-31.78-8.07l-15.87 6.99c-3.28 1.44-6.62-1.9-5.17-5.18l6.98-15.86c-5.95-8.98-9.07-20-8.07-31.78.27-3.17.84-6.25 1.68-9.22h95.77c1.5 5.299 2.14 10.97 1.76 16.83z" fill="#02ffb3"/><path d="m389.131 149.736h-253.261c-2.762 0-5-2.239-5-5s2.238-5 5-5h253.261c2.762 0 5 2.239 5 5s-2.239 5-5 5z" fill="#fff"/><path d="m394.13 168.008c0 2.76-2.24 5-5 5h-253.26c-2.76 0-5-2.24-5-5s2.24-5 5-5h253.26c1.93 0 3.6 1.09 4.43 2.69.37.69.57 1.48.57 2.31z" fill="#fff"/><path d="m393.56 165.697c-2.62 2.75-5.56 5.21-8.74 7.31h-54.51c-.06-.04-.11-.07-.17-.11l-.25.11h-20.04l4.4-10h74.88c1.93.001 3.6 1.091 4.43 2.69z" fill="#dcfdee"/><path d="m389.131 196.273h-253.261c-2.762 0-5-2.239-5-5s2.238-5 5-5h253.261c2.762 0 5 2.239 5 5s-2.239 5-5 5z" fill="#fff"/><path d="m284.131 226.573h-43.261c-2.762 0-5-2.239-5-5s2.238-5 5-5h43.261c2.762 0 5 2.239 5 5s-2.239 5-5 5z" fill="#fff"/><path d="m407.223 121.128c1.925-30.06-22.862-54.848-52.922-52.922-24.34 1.559-44.226 21.004-46.29 45.306-1.001 11.788 2.122 22.803 8.072 31.781l-6.986 15.866c-1.443 3.277 1.896 6.615 5.173 5.173l15.866-6.986c8.978 5.95 19.993 9.073 31.781 8.072 24.302-2.064 43.747-21.95 45.306-46.29z" fill="#ffa8cf"/><circle cx="338.558" cy="117.267" fill="#fff" r="5.59"/><circle cx="358.468" cy="117.267" fill="#fff" r="5.59"/><circle cx="378.378" cy="117.267" fill="#fff" r="5.59"/><path d="m61.677 123.931c-3.74 0-7.479-1.423-10.326-4.27-5.693-5.693-5.694-14.958-.001-20.652 5.695-5.694 14.959-5.692 20.652 0 5.693 5.694 5.693 14.959 0 20.651-2.846 2.847-6.586 4.271-10.325 4.271zm0-19.198c-1.179 0-2.357.449-3.255 1.347-1.794 1.794-1.794 4.715 0 6.51 1.795 1.793 4.715 1.793 6.509 0 1.795-1.795 1.794-4.716 0-6.511-.897-.897-2.075-1.346-3.254-1.346z" fill="#01eca5"/><path d="m468.574 221.425c-3.739 0-7.479-1.424-10.326-4.271-2.758-2.758-4.277-6.425-4.277-10.325s1.519-7.567 4.278-10.326c5.693-5.692 14.957-5.693 20.651.001 5.693 5.693 5.693 14.957 0 20.65-2.847 2.847-6.587 4.271-10.326 4.271zm0-19.196c-1.179 0-2.357.449-3.254 1.346-.87.87-1.349 2.025-1.349 3.255s.479 2.385 1.348 3.254c1.795 1.795 4.715 1.794 6.509.001 1.794-1.795 1.794-4.715 0-6.51-.897-.897-2.076-1.346-3.254-1.346z" fill="#01eca5"/><path d="m113.178 86.239h-3.25v-3.25c0-2.762-2.239-5-5-5s-5 2.238-5 5v3.25h-3.25c-2.761 0-5 2.238-5 5s2.239 5 5 5h3.25v3.25c0 2.762 2.239 5 5 5s5-2.238 5-5v-3.25h3.25c2.761 0 5-2.238 5-5s-2.239-5-5-5z" fill="#ff7eb8"/><path d="m237.341 466.446h-3.25v-3.25c0-2.762-2.239-5-5-5s-5 2.238-5 5v3.25h-3.25c-2.761 0-5 2.238-5 5s2.239 5 5 5h3.25v3.25c0 2.762 2.239 5 5 5s5-2.238 5-5v-3.25h3.25c2.761 0 5-2.238 5-5s-2.239-5-5-5z" fill="#ff7eb8"/><path d="m306.62 57.717h-3.25v-3.25c0-2.762-2.239-5-5-5s-5 2.238-5 5v3.25h-3.25c-2.761 0-5 2.238-5 5s2.239 5 5 5h3.25v3.25c0 2.762 2.239 5 5 5s5-2.238 5-5v-3.25h3.25c2.761 0 5-2.238 5-5s-2.239-5-5-5z" fill="#ff7eb8"/><path d="m462.24 243.973h-141.14c-2.761 0-5 2.238-5 5s2.239 5 5 5h141.14c8.271 0 15 6.729 15 15v154.927c0 8.271-6.729 15-15 15h-399.479c-8.271 0-15-6.729-15-15v-154.927c0-8.271 6.729-15 15-15h165.904l20.557 39.122c2.601 4.948 7.688 8.022 13.279 8.022s10.678-3.074 13.279-8.022l35.545-67.647h109.868c8.271 0 15-6.729 15-15v-82.596c0-8.271-6.729-15-15-15h-9.106c-1.172-12.667-6.704-24.625-15.795-33.715-11.127-11.127-26.55-16.927-42.31-15.921-26.7 1.71-48.548 23.029-50.926 49.636h-199.248c-8.271 0-15 6.729-15 15v22.599c0 2.762 2.239 5 5 5s5-2.238 5-5v-22.599c0-2.757 2.243-5 5-5h199.246c.723 8.074 3.21 15.819 7.385 22.852l-5.918 13.44c-1.495 3.396-.767 7.283 1.856 9.906 2.624 2.624 6.512 3.354 9.908 1.858l13.441-5.919c8.46 5.021 17.946 7.616 27.798 7.616 1.597 0 3.203-.068 4.815-.205 26.247-2.229 47.389-23.413 49.751-49.549h9.102c2.757 0 5 2.243 5 5v82.596c0 2.757-2.243 5-5 5h-112.888c-1.857 0-3.562 1.03-4.426 2.674l-36.951 70.321c-1.269 2.414-3.518 2.675-4.426 2.675s-3.158-.261-4.426-2.675l-36.951-70.321c-.864-1.644-2.569-2.674-4.426-2.674h-112.89c-2.757 0-5-2.243-5-5v-31.897c0-2.762-2.239-5-5-5s-5 2.238-5 5v31.897c0 8.271 6.729 15 15 15h109.868l9.734 18.525h-160.649c-13.785 0-25 11.215-25 25v154.927c0 13.785 11.215 25 25 25h399.479c13.785 0 25-11.215 25-25v-154.926c0-13.785-11.215-25-25-25zm-60.007-123.164c-1.401 21.878-18.916 39.774-40.74 41.627-10.234.869-20.119-1.641-28.596-7.258-.832-.551-1.794-.832-2.762-.832-.684 0-1.37.14-2.015.424l-13.332 5.871 5.871-13.333c.686-1.558.532-3.357-.408-4.776-5.617-8.476-8.126-18.364-7.258-28.597 1.853-21.824 19.749-39.338 41.627-40.738 12.887-.841 25.504 3.915 34.6 13.012 9.096 9.094 13.839 21.706 13.013 34.6z" fill="#2626bc"/></svg>